<svg width="28" height="28" viewBox="0 0 28 28" fill="none" xmlns="http://www.w3.org/2000/svg">
<g id="9055184_bxs_coin_stack_icon 1">
<path id="Vector" d="M14 11.6666C18.6387 11.6666 23.3334 10.0636 23.3334 6.99998C23.3334 3.93631 18.6387 2.33331 14 2.33331C9.36135 2.33331 4.66669 3.93631 4.66669 6.99998C4.66669 10.0636 9.36135 11.6666 14 11.6666Z" fill="#FA782F"/>
<path id="Vector_2" d="M4.66669 11.6666C4.66669 14.7303 9.36135 16.3333 14 16.3333C18.6387 16.3333 23.3334 14.7303 23.3334 11.6666V9.33331C23.3334 12.397 18.6387 14 14 14C9.36135 14 4.66669 12.397 4.66669 9.33331V11.6666Z" fill="#FA782F"/>
<path id="Vector_3" d="M4.66669 16.3333C4.66669 19.397 9.36135 21 14 21C18.6387 21 23.3334 19.397 23.3334 16.3333V14C23.3334 17.0637 18.6387 18.6667 14 18.6667C9.36135 18.6667 4.66669 17.0637 4.66669 14V16.3333Z" fill="#FA782F"/>
<path id="Vector_4" d="M4.66669 21C4.66669 24.0637 9.36135 25.6667 14 25.6667C18.6387 25.6667 23.3334 24.0637 23.3334 21V18.6667C23.3334 21.7303 18.6387 23.3333 14 23.3333C9.36135 23.3333 4.66669 21.7303 4.66669 18.6667V21Z" fill="#FA782F"/>
</g>
</svg>
